Coordinates
version=1
nRows=4
nColumns=107
inDegrees=yes

Units are S.I. units (second, meters, Newtons, ...)
If the header above contains a line with 'inDegrees', this indicates whether rotational values are in degrees (yes) or radians (no).

endheader
time	sternoclavicular_r2	sternoclavicular_r3	unrotscap_r3	unrotscap_r2	acromioclavicular_r2	acromioclavicular_r3	acromioclavicular_r1	unrothum_r1	unrothum_r3	unrothum_r2	elv_angle	shoulder_elv	shoulder1_r2	shoulder_rot	elbow_flexion	pro_sup	deviation	flexion	proximal_distal_r1	proximal_distal_r3	cmc_flexion	cmc_abduction	mp_flexion	ip_flexion	mcp2_flexion	mcp2_abduction	pm2_flexion	md2_flexion	mcp3_flexion	mcp3_abduction	pm3_flexion	md3_flexion	mcp4_flexion	mcp4_abduction	pm4_flexion	md4_flexion	mcp5_flexion	mcp5_abduction	pm5_flexion	md5_flexion	bicpt_tx	bicpt_ty	bicpt_tz	bicpt2_tx	bicpt2_ty	bicpt2_tz	ptpt_tx	ptpt_ty	ptpt_tz	FCUpt_tx	FCUpt_ty	FCUpt_tz	EDCpt_tx	EDCpt_ty	EDCpt_tz	APLpt_tx	APLpt_ty	APLpt_tz	FPLpt_tx	FPLpt_ty	FPLpt_tz	FPLpt2_tx	FPLpt2_ty	FPLpt2_tz	PEC1pt2_tx	PEC1pt2_ty	PEC1pt2_tz	PEC1pt3_tx	PEC1pt3_ty	PEC1pt3_tz	PEC2pt2_tx	PEC2pt2_ty	PEC2pt2_tz	PEC2pt3_tx	PEC2pt3_ty	PEC2pt3_tz	PEC3pt2_tx	PEC3pt2_ty	PEC3pt2_tz	PEC3pt3_tx	PEC3pt3_ty	PEC3pt3_tz	DELT2pt2a_tx	DELT2pt2a_ty	DELT2pt2a_tz	DELT2pt2_tx	DELT2pt2_ty	DELT2pt2_tz	LAT1pt2_tx	LAT1pt2_ty	LAT1pt2_tz	LAT1pt3_tx	LAT1pt3_ty	LAT1pt3_tz	LAT2pt2_tx	LAT2pt2_ty	LAT2pt2_tz	LAT2pt3_tx	LAT2pt3_ty	LAT2pt3_tz	LAT3pt2_tx	LAT3pt2_ty	LAT3pt2_tz	LAT3pt3_tx	LAT3pt3_ty	LAT3pt3_tz
      1.30000000	     -0.32132184	      0.13609677	     -0.13609677	      0.32132184	     -0.06506114	      0.52580122	      0.23634403	     -0.23634403	     -0.52580122	      0.06506114	    100.47237366	     76.07580207	     -1.75357373	    -27.60872344	     28.49005602	     64.02429678	      0.21028992	     -0.32242639	      0.24919731	     -0.16121320	     29.86545037	    -22.19766623	      3.11222437	      2.82018059	     -6.31369353	      1.88944284	     12.25154096	    -18.08856646	    -12.62337721	     -3.04066165	      7.88939175	     10.91101730	    -19.80629267	     -4.39067781	      1.12772396	     18.24744363	    -31.26041877	     -7.00207600	     10.20131589	      4.97294876	      0.00084236	     -0.03086540	     -0.00482597	      0.01595911	     -0.01793946	     -0.00450079	      0.00281933	     -0.06795893	     -0.00520750	      0.01028804	     -0.18291336	     -0.00033964	     -0.00768290	      0.00244659	     -0.00018245	      0.00024283	      0.00009713	      0.00048566	      0.00031082	      0.00093247	      0.00052451	     -0.00000836	     -0.00025112	     -0.00030134	      0.00249360	      0.00874872	      0.00608607	     -0.00815702	      0.01969520	     -0.01868085	      0.00249360	      0.00874872	      0.00608607	      0.00054944	      0.01825821	     -0.00959401	      0.00394449	      0.00486505	      0.01595921	      0.00000000	      0.00773988	      0.00000000	     -0.00714268	     -0.03300847	     -0.00638166	      0.01778003	     -0.00067631	     -0.00636975	     -0.00088755	      0.01487706	     -0.00608607	      0.00245133	      0.02147030	     -0.01775104	     -0.00595928	      0.01289063	     -0.00545210	     -0.01242572	      0.02721825	     -0.03047261	     -0.02332993	      0.01441215	     -0.00731174	     -0.01546876	      0.03144469	     -0.03808020
      1.33333333	     -0.32110864	      0.13600647	     -0.13600647	      0.32110864	     -0.06501797	      0.52545235	      0.23618722	     -0.23618722	     -0.52545235	      0.06501797	    100.38896778	     76.02532594	     -1.75211802	    -27.61885910	     28.71298421	     64.04358949	      0.21264320	     -0.32460753	      0.25157626	     -0.16230376	     29.88850573	    -22.18496495	      3.13336329	      2.83169090	     -6.40841177	      1.91112797	     12.21347056	    -18.12554368	    -12.71201964	     -3.04479894	      7.85780369	     10.89843124	    -19.85663843	     -4.38832808	      1.09545843	     18.24413696	    -31.31534870	     -7.03008633	     10.17538591	      4.96712233	      0.00084974	     -0.03089095	     -0.00483009	      0.01595806	     -0.01800002	     -0.00449807	      0.00281790	     -0.06795985	     -0.00520905	      0.01029013	     -0.18291282	     -0.00033942	     -0.00768521	      0.00244752	     -0.00018284	      0.00024388	      0.00009755	      0.00048775	      0.00031216	      0.00093649	      0.00052677	     -0.00000839	     -0.00025092	     -0.00030111	      0.00249194	      0.00874292	      0.00608203	     -0.00815161	      0.01968213	     -0.01866846	      0.00249194	      0.00874292	      0.00608203	      0.00054907	      0.01824609	     -0.00958765	      0.00394257	      0.00486183	      0.01595451	      0.00000000	      0.00772956	      0.00000000	     -0.00713794	     -0.03298657	     -0.00637309	      0.01778454	     -0.00067666	     -0.00637468	     -0.00088696	      0.01486719	     -0.00608203	      0.00244971	      0.02145605	     -0.01773926	     -0.00595532	      0.01288208	     -0.00544849	     -0.01241748	      0.02720020	     -0.03045239	     -0.02331445	      0.01440259	     -0.00730688	     -0.01545850	      0.03142383	     -0.03805493
      1.36666667	     -0.32729618	      0.13862721	     -0.13862721	      0.32729618	     -0.06627082	      0.53557745	      0.24073838	     -0.24073838	     -0.53557745	      0.06627082	     99.13283338	     77.49028013	     -1.73019434	    -20.33663028	     28.02160081	     56.33312475	      0.23706331	     -0.31699553	      0.27572922	     -0.15849776	     28.76154300	    -22.03522843	      4.15910296	      3.48529667	     -6.80774581	      1.49050083	     13.99581464	    -30.99367797	    -14.37210567	     -3.36274729	      8.33102695	     10.53094643	    -20.51753829	     -4.47414130	     -2.02869351	     20.41673460	    -33.91926379	     -7.31677218	     11.11374204	      5.00739907	      0.00082687	     -0.03081170	     -0.00481732	      0.01629977	     -0.01781221	     -0.00553942	      0.00338762	     -0.06759147	     -0.00458794	      0.00946580	     -0.18311742	     -0.00040191	     -0.00675996	      0.00208582	     -0.00004313	      0.00024018	      0.00009607	      0.00048036	      0.00030743	      0.00092229	      0.00051879	     -0.00000673	     -0.00025947	     -0.00031136	      0.00253996	      0.00891139	      0.00619923	     -0.00830869	      0.02006139	     -0.01902818	      0.00253996	      0.00891139	      0.00619923	      0.00055965	      0.01859768	     -0.00977239	      0.00399771	      0.00495551	      0.01608802	      0.00000000	      0.00803251	      0.00000000	     -0.00727548	     -0.03362220	     -0.00662455	      0.01396975	     -0.00044230	     -0.00341594	     -0.00090405	      0.01515367	     -0.00619923	      0.00249691	      0.02186950	     -0.01808108	     -0.00607008	      0.01313031	     -0.00555347	     -0.01265676	      0.02772432	     -0.03103919	     -0.02376371	      0.01468012	     -0.00744768	     -0.01575637	      0.03202934	     -0.03878822
      1.40000000	     -0.32891428	      0.13931256	     -0.13931256	      0.32891428	     -0.06659845	      0.53822525	      0.24192855	     -0.24192855	     -0.53822525	      0.06659845	     98.87546762	     77.87337889	     -1.72570246	    -18.38869239	     27.73244599	     54.42244120	      0.25109162	     -0.32465875	      0.28916231	     -0.16232938	     28.48590135	    -21.94459591	      4.85639494	      2.98840131	     -6.79837109	      1.74445800	     14.57345265	    -30.10542468	    -13.73936097	     -3.23461043	      7.84720357	     11.33892523	    -20.33094312	     -4.32329255	     -1.74208605	     21.61414314	    -33.45921046	     -7.57158511	     11.21684593	      5.01949483	      0.00081730	     -0.03077856	     -0.00481198	      0.01636342	     -0.01773365	     -0.00578459	      0.00352880	     -0.06750018	     -0.00443402	      0.00926437	     -0.18316551	     -0.00041048	     -0.00653068	      0.00199903	     -0.00001348	      0.00024391	      0.00009756	      0.00048781	      0.00031220	      0.00093660	      0.00052684	     -0.00000629	     -0.00026135	     -0.00031363	      0.00255252	      0.00895545	      0.00622988	     -0.00834976	      0.02016057	     -0.01912226	      0.00255252	      0.00895545	      0.00622988	      0.00056242	      0.01868963	     -0.00982071	      0.00401200	      0.00498001	      0.01612210	      0.00000000	      0.00811272	      0.00000000	     -0.00731145	     -0.03378842	     -0.00669112	      0.01282911	     -0.00038297	     -0.00275956	     -0.00090852	      0.01522858	     -0.00622988	      0.00250926	      0.02197762	     -0.01817047	     -0.00610009	      0.01319522	     -0.00558093	     -0.01271933	      0.02786139	     -0.03119264	     -0.02388119	      0.01475269	     -0.00748450	     -0.01583427	      0.03218769	     -0.03897999
